<svg xmlns="http://www.w3.org/2000/svg" xmlns:xlink="http://www.w3.org/1999/xlink" width="24" height="24" viewBox="0 0 24 24"><defs><style>.a{fill:#fff;stroke:#ea6f6f;}.b{clip-path:url(#a);}.c{fill:none;}.d{fill:#c1c1c1;}</style><clipPath id="a"><rect class="a" width="24" height="24"/></clipPath></defs><g class="b"><g transform="translate(2.896 2.896)"><path class="c" d="M0,0H18.209V18.209H0Z"/><path class="d" d="M9.754,2.167a7.587,7.587,0,1,0,0,15.174h3.793V15.823H9.754a6.147,6.147,0,0,1-6.07-6.07,6.147,6.147,0,0,1,6.07-6.07,6.147,6.147,0,0,1,6.07,6.07v1.085a1.226,1.226,0,0,1-1.138,1.191,1.226,1.226,0,0,1-1.138-1.191V9.754a3.795,3.795,0,1,0-1.108,2.678,2.81,2.81,0,0,0,2.246,1.115,2.665,2.665,0,0,0,2.655-2.709V9.754A7.59,7.59,0,0,0,9.754,2.167Zm0,9.863A2.276,2.276,0,1,1,12.03,9.754,2.273,2.273,0,0,1,9.754,12.03Z" transform="translate(-0.649 -0.649)"/></g></g></svg>