<svg xmlns="http://www.w3.org/2000/svg" width="493.645" height="516.605" viewBox="0 0 493.645 516.605"><defs><style>.a{fill:#3f3d56;}.b{fill:#fff;}.c{fill:#ea6f6f;}.d{fill:#ef9797;}.e{fill:#45e59b;}.f{fill:#f5d9d9;}.g{fill:#33c17f;}</style></defs><g transform="translate(22.862)"><circle class="a" cx="51.999" cy="51.999" r="51.999" transform="translate(292.021 130.032)"/><path class="b" d="M945.649,383.983c.115-.021.2-.1.335-.081a4.43,4.43,0,0,0-.228-.658l-.482.657Z" transform="translate(-475.201 -171.005)"/><path class="b" d="M370.53,133.685l8.565-6.85c-6.654-.734-9.387,2.895-10.506,5.767-5.2-2.158-10.857.67-10.857.67l17.137,6.221A12.968,12.968,0,0,0,370.53,133.685Z" transform="translate(-293.04 -91.478)"/><path class="b" d="M744.414,82.58l8.565-6.85c-6.654-.734-9.387,2.895-10.506,5.767-5.2-2.158-10.857.67-10.857.67l17.137,6.221A12.968,12.968,0,0,0,744.414,82.58Z" transform="translate(-408.959 -75.633)"/><path class="c" d="M857.2,475.529q0,8.514-.593,16.889a237.426,237.426,0,0,1-44.1,122.22q-5.054,7.053-10.612,13.71a239.761,239.761,0,0,1-31.844,31.631l-50.761-29.786-30.35-70.836s45.283-91.687,168.184-90.024Q857.192,472.42,857.2,475.529Z" transform="translate(-395.725 -197.689)"/><path class="d" d="M858.577,502.506a238.779,238.779,0,0,1-89.2,169.708l-47.158-27.669L695.3,581.72S738.914,493.417,858.577,502.506Z" transform="translate(-397.7 -207.777)"/><path class="c" d="M679.894,629.443q-5.053,7.053-10.612,13.71a238.843,238.843,0,0,1-92.441,67.98q-10.9,4.493-22.308,7.924a261.384,261.384,0,0,1-165.76-10.524A239.618,239.618,0,0,1,270.119,592.795q-4.944-10.392-8.891-21.312c45.9-33.624,136.34-81.771,234.912-34.986q40.9,19.412,73.04,35.389C623.552,598.837,659.739,618.267,679.894,629.443Z" transform="translate(-263.12 -212.495)"/><path class="e" d="M673.277,651.786a238.92,238.92,0,0,1-399.163-50.358c38.333-30.313,126.746-84.788,223.772-38.743q37.428,17.764,66.83,32.386C621.857,623.392,657.055,642.639,673.277,651.786Z" transform="translate(-267.116 -221.127)"/><path class="c" d="M616.914,750.2a241.138,241.138,0,0,1-24.784,11.945,239.012,239.012,0,0,1-281.586-76.959C367.568,679.175,525.191,671.068,616.914,750.2Z" transform="translate(-278.41 -263.508)"/><path class="a" d="M599.621,770.541A239.015,239.015,0,0,1,334.7,713.328C355.445,710.281,518.283,689.357,599.621,770.541Z" transform="translate(-285.901 -271.903)"/><path class="f" d="M709.708,238.636v.007c-170.484-126.05-365.81-37.33-367.319-36.648v-.007a238.79,238.79,0,0,1,367.319,36.648Z" transform="translate(-288.283 -93.196)"/><ellipse class="e" cx="53.062" cy="108.268" rx="53.062" ry="108.268" transform="translate(-22.862 78.783) rotate(-10.221)"/><path class="a" d="M350.779,471.507c-1.71-129.255-44.957-250.553-45.393-251.762l-3.944,1.423c.434,1.2,43.444,121.866,45.145,250.4Z" transform="translate(-275.588 -120.314)"/><rect class="a" width="4.194" height="54.415" transform="translate(-2.827 165.287) rotate(-72.079)"/><rect class="a" width="54.417" height="4.194" transform="translate(53.197 190.586) rotate(-38.378)"/><path class="g" d="M435.211,522.881c.176.251.36.5.547.749h15.8c-.12-.214-.258-.464-.419-.749-2.611-4.712-10.338-18.8-17.512-33.405-7.709-15.695-14.781-31.985-14.185-37.881C419.261,452.925,413.927,493.462,435.211,522.881Z" transform="translate(-307.815 -192.196)"/><path class="g" d="M672.233,573.112c-.154.219-.313.438-.477.653H657.979c.1-.186.225-.4.366-.653,2.276-4.108,9.013-16.39,15.267-29.123,6.721-13.683,12.886-27.885,12.367-33.026C686.138,512.123,690.788,547.464,672.233,573.112Z" transform="translate(-390.263 -204.815)"/><path class="e" d="M440.3,462.537a120.847,120.847,0,0,0,5.645,33.4c.079.251.161.5.243.749h21.066c-.023-.225-.045-.476-.067-.749-1.4-16.148-9.5-114.43.18-131.238C466.52,366.067,438.666,411.227,440.3,462.537Z" transform="translate(-318.618 -165.256)"/><path class="e" d="M670.032,520.5a105.354,105.354,0,0,1-4.921,29.123c-.069.219-.14.434-.212.653H646.533c.02-.2.039-.415.059-.653,1.225-14.078,8.285-99.762-.157-114.415C647.173,436.4,671.456,475.77,670.032,520.5Z" transform="translate(-382.549 -181.328)"/><ellipse class="e" cx="57.418" cy="117.156" rx="57.418" ry="117.156" transform="translate(149.036 29.522)"/><path class="a" d="M553.5,441.767c23-137.975.232-275.451,0-276.823l-4.473.758c.232,1.365,22.866,138.119,0,275.32Z" transform="translate(-352.349 -103.323)"/><rect class="a" width="4.538" height="58.882" transform="translate(153.761 125.489) rotate(-61.858)"/><rect class="a" width="58.884" height="4.538" transform="translate(208.566 163.187) rotate(-28.158)"/><path class="b" d="M760.721,370.291a437.714,437.714,0,0,0-65.8-30.086c-125.67-45.474-250.285-27.948-299.061,37.132C433.815,297.61,569.262,272.54,705.946,322a446.335,446.335,0,0,1,46.631,19.921,237.036,237.036,0,0,1,8.144,28.373Z" transform="translate(-304.86 -144.143)"/><path class="b" d="M672.933,214.335l8.565-6.85c-6.654-.734-9.387,2.895-10.506,5.767-5.2-2.158-10.857.67-10.857.67l17.137,6.221A12.968,12.968,0,0,0,672.933,214.335Z" transform="translate(-386.797 -116.483)"/></g></svg>