<svg xmlns="http://www.w3.org/2000/svg" width="145.797" height="32.795" viewBox="0 0 145.797 32.795"><defs><style>.a{fill:#ea6f6f;}.b{fill:#3f3d56;font-size:27px;font-family:Roboto-Medium, Roboto;font-weight:500;}</style></defs><g transform="translate(-1349.203 -72.205)"><path class="a" d="M992.842,996.832c-1.026-1.225-1.785-.32-2.521-.247a7.76,7.76,0,0,1-6.551-2.159c-1.4-1.375-1.7-2.611.587-3.368.295-.1.586-.21.887-.283,5.058-1.241,8.343-3.61,7.143-9.67-.467-2.359,1.213-4.145,3.535-4.847a4.2,4.2,0,0,1,5.325,2.084c.9,1.854,2.2,1.53,3.613,1.455,1.188-.063,2.156.385,2.285,1.591.155,1.452-1.169.743-1.813.929-2.221.644-3.662,1.684-3.115,4.354a16.376,16.376,0,0,1,.035,3.416c-.069,5.815-2.764,9.283-8.381,10.73-.763.2-1.7-.052-1.593,1.287.1,1.151.965.859,1.588,1.011a17.174,17.174,0,0,0,1.844.285c.927.122,1.688.514,1.468,1.563-.173.831-.951,1.019-1.743.909a19.179,19.179,0,0,0-5.242-.067c-1.445.192-2.1-.664-1.057-2.111,1.416-1.958.9-2.785-1.531-2.924-3.2-.182-6.388-.663-9.582-1.007-.846-.091-1.738-.165-1.838-1.248-.083-.9.709-1.121,1.329-1.5,2.018-1.246,3.669-1.719,5.968.07C986.3,999.274,989.652,998.94,992.842,996.832Z" transform="translate(373.025 -903.805)"/><g transform="translate(6)"><text class="b" transform="translate(1385 98)"><tspan x="0" y="0">User</tspan><tspan class="a" y="0">Bird</tspan></text></g></g></svg>